<!-- <svg width="256" height="256" viewBox="0 0 256 256" fill="red" xmlns="http://www.w3.org/2000/svg">
<path d="M128 24C107.431 24 87.3235 30.0995 70.2207 41.5272C53.118 52.9548 39.7881 69.1974 31.9166 88.2009C24.0451 107.204 21.9855 128.115 25.9984 148.289C30.0112 168.463 39.9163 186.994 54.4609 201.539C69.0056 216.084 87.5366 225.989 107.711 230.002C127.885 234.015 148.796 231.955 167.799 224.083C186.803 216.212 203.045 202.882 214.473 185.779C225.901 168.677 232 148.569 232 128C231.971 100.426 221.004 73.9905 201.507 54.4931C182.01 34.9956 155.574 24.0291 128 24ZM124 72C126.373 72 128.693 72.7038 130.667 74.0224C132.64 75.3409 134.178 77.2151 135.087 79.4078C135.995 81.6005 136.232 84.0133 135.769 86.3411C135.306 88.6689 134.164 90.8071 132.485 92.4853C130.807 94.1635 128.669 95.3064 126.341 95.7694C124.013 96.2324 121.601 95.9948 119.408 95.0866C117.215 94.1783 115.341 92.6402 114.022 90.6668C112.704 88.6934 112 86.3734 112 84C112 80.8174 113.264 77.7652 115.515 75.5147C117.765 73.2643 120.817 72 124 72ZM136 184C131.757 184 127.687 182.314 124.686 179.314C121.686 176.313 120 172.243 120 168V128C117.878 128 115.843 127.157 114.343 125.657C112.843 124.157 112 122.122 112 120C112 117.878 112.843 115.843 114.343 114.343C115.843 112.843 117.878 112 120 112C124.244 112 128.313 113.686 131.314 116.686C134.314 119.687 136 123.757 136 128V168C138.122 168 140.157 168.843 141.657 170.343C143.157 171.843 144 173.878 144 176C144 178.122 143.157 180.157 141.657 181.657C140.157 183.157 138.122 184 136 184Z" fill="#111111"/>
</svg> -->

<svg xmlns="http://www.w3.org/2000/svg" viewBox="0 0 256 256" fill="#111111">
 <rect x="80" y="50" width="100" height="150" stroke="white" fill="white"
       fill-opacity="1" stroke-opacity="0.8"/>
  <path d="M128 24C107.431 24 87.3235 30.0995 70.2207 41.5272C53.118 52.9548 39.7881 69.1974 31.9166 88.2009C24.0451 107.204 21.9855 128.115 25.9984 148.289C30.0112 168.463 39.9163 186.994 54.4609 201.539C69.0056 216.084 87.5366 225.989 107.711 230.002C127.885 234.015 148.796 231.955 167.799 224.083C186.803 216.212 203.045 202.882 214.473 185.779C225.901 168.677 232 148.569 232 128C231.971 100.426 221.004 73.9905 201.507 54.4931C182.01 34.9956 155.574 24.0291 128 24ZM124 72C126.373 72 128.693 72.7038 130.667 74.0224C132.64 75.3409 134.178 77.2151 135.087 79.4078C135.995 81.6005 136.232 84.0133 135.769 86.3411C135.306 88.6689 134.164 90.8071 132.485 92.4853C130.807 94.1635 128.669 95.3064 126.341 95.7694C124.013 96.2324 121.601 95.9948 119.408 95.0866C117.215 94.1783 115.341 92.6402 114.022 90.6668C112.704 88.6934 112 86.3734 112 84C112 80.8174 113.264 77.7652 115.515 75.5147C117.765 73.2643 120.817 72 124 72ZM136 184C131.757 184 127.687 182.314 124.686 179.314C121.686 176.313 120 172.243 120 168V128C117.878 128 115.843 127.157 114.343 125.657C112.843 124.157 112 122.122 112 120C112 117.878 112.843 115.843 114.343 114.343C115.843 112.843 117.878 112 120 112C124.244 112 128.313 113.686 131.314 116.686C134.314 119.687 136 123.757 136 128V168C138.122 168 140.157 168.843 141.657 170.343C143.157 171.843 144 173.878 144 176C144 178.122 143.157 180.157 141.657 181.657C140.157 183.157 138.122 184 136 184Z" fill="#111111"/>
</svg>

